<svg width="10" height="10" viewBox="0 0 10 10" fill="none" xmlns="http://www.w3.org/2000/svg"><path fill-rule="evenodd" clip-rule="evenodd" d="M0.43451 0.434266C0.746929 0.121846 1.25346 0.121846 1.56588 0.434266L5.0002 3.86858L8.43451 0.434266C8.74693 0.121846 9.25346 0.121846 9.56588 0.434266C9.8783 0.746685 9.8783 1.25322 9.56588 1.56564L6.13157 4.99995L9.56588 8.43427C9.8783 8.74669 9.8783 9.25322 9.56588 9.56564C9.25346 9.87806 8.74693 9.87806 8.43451 9.56564L5.0002 6.13132L1.56588 9.56564C1.25346 9.87806 0.746929 9.87806 0.43451 9.56564C0.12209 9.25322 0.12209 8.74669 0.43451 8.43427L3.86882 4.99995L0.43451 1.56564C0.12209 1.25322 0.12209 0.746685 0.43451 0.434266Z" fill="white"/></svg>
