<svg width="58" height="10" viewBox="0 0 58 10" fill="none" xmlns="http://www.w3.org/2000/svg">
<path fill-rule="evenodd" clip-rule="evenodd" d="M26.5614 7.96244C27.942 9.36862 30.1465 9.34246 31.4963 7.90232L33.6352 5.6202C35.2594 3.88726 36.9524 2.47624 38.968 1.50162C40.9869 0.525378 43.3022 -1.45179e-06 46.1546 -1.20242e-06L49 -9.53674e-07L49 0.999999L46.1546 0.999999C43.4318 0.999999 41.2686 1.49994 39.4033 2.40189C37.5347 3.30545 35.938 4.6255 34.3648 6.30404L32.2259 8.58616C30.488 10.4405 27.6275 10.4756 25.8478 8.66303C25.823 8.6377 25.7984 8.61208 25.7741 8.58616L23.6352 6.30404C22.062 4.6255 20.4653 3.30545 18.5967 2.40189C16.7314 1.49993 14.5682 0.999996 11.8454 0.999996L9 0.999996L9 -4.45059e-06L11.8454 -4.20184e-06C14.6978 -3.95247e-06 17.0131 0.525376 19.032 1.50161C21.0476 2.47624 22.7406 3.88725 24.3648 5.6202L26.5037 7.90232C26.5227 7.92259 26.542 7.94263 26.5614 7.96244Z" fill="#D4D4D4"/>
<path d="M31.4963 7.90232C30.1466 9.34246 27.9421 9.36862 26.5615 7.96244C26.542 7.94263 26.5228 7.92259 26.5038 7.90232L24.3649 5.6202C22.7407 3.88725 21.0477 2.47624 19.0321 1.50161C17.0165 0.52697 14.7054 0.00171271 11.8594 0H46.1547C43.3023 0 40.9869 0.525378 38.968 1.50162C36.9525 2.47624 35.2594 3.88726 33.6352 5.6202L31.4963 7.90232Z" fill="#BAE1F9"/>
</svg>
